<svg width="241" height="241" viewBox="0 0 241 241" fill="none" xmlns="http://www.w3.org/2000/svg">
<rect width="241" height="241" fill="#0F0F10"/>
<path d="M120.53 194.34C100.55 194.34 83.2702 186.42 72.2902 167.16L94.0702 153.3C100.55 166.26 110.99 171.84 121.97 171.84C133.67 171.84 140.87 166.08 140.87 157.44C140.87 144.84 127.55 140.88 112.07 136.92C92.6302 131.88 80.2102 120.54 80.2102 101.46C80.2102 78.78 98.0302 63.84 124.67 63.84C144.29 63.84 156.89 72.48 166.25 87.24L144.65 100.56C138.53 90.84 132.77 86.34 123.41 86.34C113.33 86.34 105.95 91.74 105.95 100.2C105.95 109.56 114.95 112.62 125.93 116.04C140.69 120.72 166.61 127.2 166.61 156C166.61 178.86 149.15 194.34 120.53 194.34Z" fill="white"/>
</svg>
